<?xml version="1.0" encoding="UTF-8" standalone="no"?>
<!DOCTYPE svg PUBLIC "-//W3C//DTD SVG 1.1//EN" "http://www.w3.org/Graphics/SVG/1.1/DTD/svg11.dtd">
<svg xmlns="http://www.w3.org/2000/svg" version="1.1" viewBox="0 0 635 635">
<path fill="#000000" d="
  M 634.73 317.62
  A 316.94 316.94 0.0 0 1 317.79 634.56
  A 316.94 316.94 0.0 0 1 0.85 317.62
  A 316.94 316.94 0.0 0 1 317.79 0.68
  A 316.94 316.94 0.0 0 1 634.73 317.62
  Z
  M 606.86 317.62
  A 289.07 289.07 0.0 0 0 317.79 28.55
  A 289.07 289.07 0.0 0 0 28.72 317.62
  A 289.07 289.07 0.0 0 0 317.79 606.69
  A 289.07 289.07 0.0 0 0 606.86 317.62
  Z"
/>
<path fill="#000000" d="
  M 372.38 340.85
  A 1.00 1.00 0.0 0 0 372.05 342.14
  C 380.78 359.09 388.62 377.46 410.13 380.36
  A 1.01 1.01 0.0 0 1 411.00 381.36
  L 411.00 406.92
  A 1.00 1.00 0.0 0 1 410.05 407.92
  Q 399.39 408.51 391.29 406.20
  Q 364.78 398.64 351.63 374.45
  Q 345.61 363.37 339.72 352.21
  A 1.03 1.00 75.6 0 0 338.83 351.67
  L 298.50 351.79
  A 1.00 1.00 0.0 0 0 297.50 352.79
  L 297.50 401.25
  A 1.00 1.00 0.0 0 1 296.50 402.25
  L 264.75 402.25
  A 1.00 1.00 0.0 0 1 263.75 401.25
  L 263.75 235.27
  A 1.00 1.00 0.0 0 1 264.75 234.27
  Q 297.29 234.21 329.97 234.28
  Q 343.87 234.31 349.92 235.42
  C 375.84 240.19 393.84 261.11 396.23 287.40
  C 398.10 308.02 389.80 329.13 372.38 340.85
  Z
  M 346.17 316.50
  C 372.13 308.17 366.32 267.98 337.24 267.97
  Q 317.79 267.96 298.50 268.01
  A 1.01 1.00 -0.3 0 0 297.50 269.01
  L 297.50 316.73
  A 1.00 1.00 0.0 0 0 298.49 317.73
  Q 316.79 317.82 335.05 317.70
  Q 342.56 317.66 346.17 316.50
  Z"
/>
<path fill="#000000" d="
  M 180.01 236.56
  C 230.73 244.19 257.04 293.53 245.93 341.08
  C 237.22 378.40 206.16 403.02 167.50 403.28
  Q 136.88 403.49 106.25 403.50
  A 1.00 1.00 0.0 0 1 105.25 402.50
  L 105.25 236.54
  A 1.00 1.00 0.0 0 1 106.24 235.54
  Q 133.11 235.40 160.06 235.56
  Q 173.90 235.64 180.01 236.56
  Z
  M 178.50 368.19
  C 226.12 356.66 226.78 283.85 180.06 271.14
  Q 173.95 269.48 160.75 269.28
  Q 150.35 269.11 139.98 269.31
  A 1.00 1.00 0.0 0 0 139.00 270.31
  L 139.00 368.75
  A 1.00 1.00 0.0 0 0 140.00 369.75
  Q 149.66 369.77 159.21 369.74
  Q 172.25 369.71 178.50 368.19
  Z"
/>
<path fill="#000000" d="
  M 458.00 339.04
  L 458.00 404.93
  A 0.55 0.55 0.0 0 1 457.45 405.48
  L 424.70 405.54
  A 0.55 0.55 0.0 0 1 424.15 404.99
  L 424.29 238.05
  A 0.55 0.55 0.0 0 1 424.84 237.50
  L 532.20 237.50
  A 0.55 0.55 0.0 0 1 532.75 238.05
  L 532.75 270.70
  A 0.55 0.55 0.0 0 1 532.20 271.25
  L 458.55 271.25
  A 0.55 0.55 0.0 0 0 458.00 271.80
  L 458.00 303.95
  A 0.55 0.55 0.0 0 0 458.55 304.50
  L 532.20 304.50
  A 0.55 0.55 0.0 0 1 532.75 305.05
  L 532.75 337.96
  A 0.55 0.55 0.0 0 1 532.20 338.51
  L 458.55 338.49
  A 0.55 0.55 0.0 0 0 458.00 339.04
  Z"
/>
</svg>
