<?xml version="1.0" encoding="UTF-8" standalone="no"?>
<svg
   viewBox="0 0 700 466"
   className="logo"
   version="1.1"
   id="svg490"
   sodipodi:docname="2041334.svg"
   inkscape:version="1.2.2 (732a01da63, 2022-12-09)"
   xmlns:inkscape="http://www.inkscape.org/namespaces/inkscape"
   xmlns:sodipodi="http://sodipodi.sourceforge.net/DTD/sodipodi-0.dtd"
   xmlns="http://www.w3.org/2000/svg"
   xmlns:svg="http://www.w3.org/2000/svg">
  <defs
     id="defs494" />
  <sodipodi:namedview
     id="namedview492"
     pagecolor="#ffffff"
     bordercolor="#999999"
     borderopacity="1"
     inkscape:showpageshadow="0"
     inkscape:pageopacity="0"
     inkscape:pagecheckerboard="0"
     inkscape:deskcolor="#d1d1d1"
     showgrid="false"
     inkscape:zoom="1.4324223"
     inkscape:cx="424.45583"
     inkscape:cy="373.4932"
     inkscape:window-width="2560"
     inkscape:window-height="1369"
     inkscape:window-x="-8"
     inkscape:window-y="-8"
     inkscape:window-maximized="1"
     inkscape:current-layer="svg490" />
  <path
     fill="#2c2c2c"
     d="M129.78 96.46l-.12-12.69a1 1 0 01.97-1.01l4.05-.11a1 .99-.8 011.03.99l.13 40.87a1.01 1-89.2 01-1.03 1.01l-3.22-.12a1 1 0 01-.95-.83l-.23-1.41q-.32-1.85-1.68-.55-5.11 4.85-11.48 2.93c-13.48-4.06-11.53-32.99 5.26-30.77q2.72.36 5.68 2.51 1.61 1.17 1.59-.82zm-.14 10.27a6.61 6.61 0 00-6.61-6.61h-1a6.61 6.61 0 00-6.61 6.61v7.34a6.61 6.61 0 006.61 6.61h1a6.61 6.61 0 006.61-6.61v-7.34z"
     id="path348" />
  <circle
     cx="148.45"
     cy="87.41"
     r="3.53"
     fill="#2c2c2c"
     id="circle350" />
  <path
     fill="#2c2c2c"
     d="M178.48 105.76q.11-7.07-7.52-6.07-1.51.2-5.66 1.81a1 .99-21.3 01-1.29-.56l-1.13-2.81a1.01 1 67.9 01.54-1.3q5.56-2.32 11.54-2.05c8.78.4 9.8 5.88 9.8 13.67l-.02 15.99a1.01 1-8.1 01-.73.96q-3.98 1.14-4.54-2.36-.35-2.15-1.76-.48-2.91 3.48-8.45 3.41c-13.06-.14-13.5-16.17-.72-18.42q1.81-.32 9.01-.8a1.01 1-1.9 00.93-.99zm-11.39 14.42c6.58 2.59 12.48-1.39 11.24-8.43a1 1 0 00-1.05-.83q-4.31.3-6.53.76-6.19 1.28-4.26 7.85a1.01 1 2.6 00.6.65zM213.03 106.26c-.05-9.68-13.2-7.85-13.68 1.33q-.31 5.78-.02 16.88a1.01 1 89.4 01-1 1.03H194a1 1 0 01-1-1V96.37a1 1 0 011.07-1l3.24.21a1.02 1.01-2.1 01.93.86l.14 1.01q.25 1.8 1.63.62 5.96-5.04 13.03-2.63c4.62 1.58 6.28 5.08 6.33 9.74q.17 13.62.05 19.34a1 1 0 01-1 .98h-4.48a.99.99 0 01-.99-1.01q.13-9.14.08-18.23zM250.67 99.25a1 .99-14 00-.81 1.34q3.56 9.56-5.59 13.69-1.9.86-7.99.79a1.05 1-61.3 00-.59.19q-2.04 1.47-1.16 3.69a1 .99-7.7 00.83.63c4.94.49 16.98-1.28 18.49 6.61 2.9 15.22-26.52 16.46-28.54 5.96q-1.13-5.85 4.57-8.41a1 1 0 00.32-1.59q-3.24-3.49.55-7.27.09-.1.21-.16l.27-.16a1 .99 48.5 00.1-1.66q-5.1-3.85-3.67-10.58c1.31-6.15 7.49-8.06 13.05-7.57 5.37.49 8.38.53 12.76.48a1 .99-.6 011.01.98l.03 1.66a1 1 0 01-.88 1l-2.96.38zm-11.398 11.838a6.23 5.72 88.6 005.566-6.368 6.23 5.72 88.6 00-5.87-6.088 6.23 5.72 88.6 00-5.566 6.368 6.23 5.72 88.6 005.87 6.088zm9.111 18.153a9 4.69-3.5 00-9.27-4.132 9 4.69-3.5 00-8.696 5.23 9 4.69-3.5 009.27 4.132 9 4.69-3.5 008.696-5.23zM286.785 113.056a12.76 12.76 0 01-12.738 12.782l-2.36.004a12.76 12.76 0 01-12.782-12.738l-.01-5.42a12.76 12.76 0 0112.738-12.782l2.36-.004a12.76 12.76 0 0112.782 12.738l.01 5.42zm-13.976 7.994a10.69 7.83 89.9 007.811-10.704 10.69 7.83 89.9 00-7.849-10.676 10.69 7.83 89.9 00-7.811 10.704 10.69 7.83 89.9 007.849 10.676zM140.08 133.56c4.28.6 5.17-1.92 5.17-5.65V96.37a1 1 0 011.04-1l4.29.17a1 .99-89.1 01.96 1q-.05 17.47-.07 34.88c-.01 6.4-7.8 8.37-13.23 6.9a1 .99 7.6 01-.74-.96v-2.97a1 1 0 011.09-1q.75.07 1.49.17z"
     id="path352" />
  <ellipse
     cx="0"
     cy="0"
     fill="#fff"
     rx="6.23"
     ry="5.72"
     transform="rotate(88.6 65.833 174.948)"
     id="ellipse354" />
  <rect
     width="14.22"
     height="20.56"
     x="115.42"
     y="100.12"
     fill="#fff"
     rx="6.61"
     id="rect356" />
  <ellipse
     cx="0"
     cy="0"
     fill="#fff"
     rx="10.69"
     ry="7.83"
     transform="rotate(89.9 81.119 191.813)"
     id="ellipse358" />
  <path
     fill="#fff"
     d="M167.09 120.18a1.01 1 2.6 01-.6-.65q-1.93-6.57 4.26-7.85 2.22-.46 6.53-.76a1 1 0 011.05.83c1.24 7.04-4.66 11.02-11.24 8.43z"
     id="path360" />
  <ellipse
     cx="0"
     cy="0"
     fill="#fff"
     rx="9"
     ry="4.69"
     transform="rotate(-3.5 2243.73 -3852.918)"
     id="ellipse362" />
  <path
     fill="#7f2c2c"
     d="M595.21 178h-.92l-44.47-.19a1.01 1-89.4 00-1.01 1l-.09 56.78.07 2.66c.33 26.45-.76 53.11.25 79.5l-.04.46q-12.87.73-25.75 0v-.67q.41-5.62.07-15.1-.44-12.25.12-58.13.05-4.74-.23-6.81l.04-.96q.32-4.22.06-15.61-.21-9.27-.01-42.06a1 1 0 00-.99-1l-6.8-.09-3.23.1-55.82-.06a.99.99 0 00-.93.65l-2.17 5.73a1 1 0 01-1.34.56q-8.88-3.97-18.23-6.01l-2.54-.71c-15.4-3.61-41.44-3.94-41.5 18.47-.04 12.65 10 19.59 20.75 24.28l1.96.71 18.04 8.29 2.71 1.21 9.54 5.29 4.21 2.96c10.9 8.05 16.01 18.75 16.5 32.51q1.12 31.65-30.45 43.99l-6.76 1.96q-23 3.87-45.99-.46l-4.01-1.21q-6.94-1.56-13.44-4.75a1.01 1 13.4 01-.56-.9v-22.75a1 1 0 011.41-.91q20.07 9.17 42.05 10.46c8.8.51 20.04-.96 26.49-7.65q1.72-1.32 2.31-2.72 7.08-12.21-.55-23.57l-1.22-1.56q-8.03-7.75-18.99-12.23l-2.21-.71c-4.43-2.56-8.79-4.76-14.14-4.77q-22.31-.03-44.69.12l-2.9.03-44.81.08h-12.75l-16.68-.14a1 1 0 00-1.01 1l-.1 24.18.08 4 .13 20.95a1.01 1.01 0 001 1l61.54.08a1 1 0 011 .99l.08 21.23-.04.96q-50.81.07-101.6.04-2.14 0-4.05 1-9.11 4.73-18.62 9.34a1 1 0 01-.94-.04q-7.33-4.29-13.54-11.09l-.71-.96-8.41-11.85q-.59-1.65-2.1-3.22l-29.82-48.45a1.02 1-14.2 00-.83-.48l-24.06-.55a1 .99-89.2 00-1.02 1l-.01 64.55-.04.46-24.68.24a1 1 0 01-1.01-1l-.02-77.7-.04-3.71.18-79.27a1 .99-.3 01.99-.99q29.92-.39 59.84.47 3.35 1.39 6.7 1.35l11.79 3.69 3.25 1.42c18.99 9.61 25.67 31.81 20.76 51.58q-4.59 18.51-22.26 28.2l-1.25.72-4.72 2.13a1 1 0 00-.45 1.42l4.87 8.28q.54 1.85 2.01 3.46 10.94 19.21 24.15 37.53a.99.97-17.3 00.8.41l34.33.08a1 1 0 001-1v-57.99l-.01-1.18.06-79.6a1 1 0 011-1h87.52a1 .99 0 011 .99l.09 19.94a1 1 0 01-.99 1.01l-43.91.1q-8.78-.61-17.56.06l-.46.01a1 1 0 00-.98 1v42.28a1 1 0 001.03 1l14.04-.46q2.8.78 5.18.36l55.5-.33h1.5q8.73.61 17.58.15a1.01 1 73.4 00.81-1.51q-4.06-6.96-5.24-14.75-5.14-34.18 25.35-47.64l2.75-1.42q20.32-5.25 40.83-1.63 4.99.88 8.93.88 75.85-.08 151.68-.02a1 1 0 011 1.01l-.23 21.22zM284.5 225.54h-4.75l-8.49-.02q-.72-25.54-.36-51.09a.22.2-5.1 01.18-.2l.17-.02q.23.2.51.2 30.98.26 61.99-.21a1 1 0 00.98-1l.06-12.93a1 .99.3 00-1-1l-63.29.02-1.81-.01-15.38.03a1 .99 0 00-1 .99l-.04 76.17.02 1.28v60l-.33 1.75-3.09.31-37.3-.12a1.01 1-18 01-.81-.41q-10.67-14.65-20.47-30.38-.44-1.57-2.18-3.2l-11.61-20.43a1.01 1-27.1 01.46-1.41q3.73-1.69 7.37-3.43 17.88-8.55 22.44-26.53c4.32-16.98-.38-37.73-16.86-46.76l-2.41-1.35q-14.42-6.3-31.52-6.44-21.58-.18-44.63-.08a1.01 1-.3 00-1 1v76.13q.34.68.06 1.41V314a1 1 0 001 1h16.6a1 1 0 001-1l-.01-64.36a1 1 0 011.02-1l29.71.65a1.01.99 74.3 01.83.48l25.69 41.77 2.21 3.21c2.94 5.28 12.01 20.94 17.04 23.54l.46.71q3.13 3.78 7.64 5.59a.99.96-45.7 00.8-.02l10.85-5.11 1.75-1.42c3.14-1.07 5.62-2.97 8.98-2.99q15.89-.07 31.77-.09l3.04-.07 62.96.06a1 1 0 001-1v-14.26a1 1 0 00-1-1l-62.51-.16q-1.13-29.02.32-57.98 64.44-.01 128.43-.05c3.69 0 7.5 2.5 10.97 3.75l1.04.46q9.78 4.44 19.13 10.37l1.84 1.47c10.86 10.31 11.54 26.89.28 37.24q-1.47.65-2.37 1.68c-9.11 5.15-19.86 5.88-29.81 4.95q-17.23-1.62-33.94-8.43a1 1 0 00-1.38.93v15.33a.99.99 0 00.62.92c18.35 7.48 45.14 9.76 64.38 3.29l3.49-1.06q30.2-13.16 24.93-46.65c-2.02-12.84-11.33-22.35-22.67-27.79l-2.71-1.46q-10.03-5.25-20.54-9.46l-.96-.29c-10.28-4.61-23.03-11.57-25.39-23.41-3.1-15.5 6.11-27.24 21.16-29.27q10.94-1.48 22.65 1.18l3.22.73q8.23 2.08 16.02 5.18a1 .99-68.2 001.29-.56l1.92-4.74a1.01.99 10.8 01.93-.62l58.16-.03q1.88.47 3.75 0l9.77.05a1 1 0 01.99 1l-.01 46.53.04 1.46-.02 12.85.02 2.15-.02 75.75a1.01 1 90 001 1.01l16.68-.05a1 1 0 001-1l.01-75.96v-2l.09-60.63a1 1 0 01.98-1q13.03-.28 26.07-.04 4.3.07 9.43-.04 4.47-.09 8.96-.07a1 1 0 001.01-1v-12.97a1 1 0 00-1-1l-75.92.01-2.83.03q-36.37-.07-72.74-.04c-1.58 0-3.31-.49-5.01-.54l-2.5-.42c-23.1-4.05-57.57.26-63.34 28.64q-4.31 21.16 8.04 36.94 1.26 1.62-.79 1.62l-91.41.05z"
     id="path366" />
  <path
     fill="#7f2c2c"
     d="M186.56 191.27q3.83 12.89-.33 25.69c-5.42 12.24-17.49 16.84-30.17 17.23q-13.03.39-26.07.39a1 1 0 01-1-1l.04-58.33a1 1 0 011.03-1c18.37.53 46.54-3.49 56.5 17.02zm-1.61 16.25c1.92-19.66-10.16-27.94-28.02-29.17q-8.24-.56-23.45-.59a1 1 0 00-1 .92q-.21 2.72-.14 5.45.16 5.68.16 5.77-.02 20.13.02 40.32a1 1 0 001 1q11.34-.01 22.66-.58c14.69-.74 27.18-6.88 28.77-23.12z"
     id="path386" />
  <path
     fill="#2c2c2c"
     d="M301.2 355.73l-2.58.14a1 1 0 01-1.06-.94l-.07-1.29a1.01 1 77.4 01.62-.99l3.54-1.43a1.02 1.02 0 00.62-.82c.58-5.27.56-9.88 6.81-11.55q4.26-1.13 9.19.57a1 1 0 01.62 1.26l-.97 2.93a1.01 1 17.9 01-1.26.64q-8.15-2.66-7.82 5.74a1.01 1-.6 00.99.96l5.45.07a1.01 1.01 0 01.99 1.03l-.08 2.85a1 1 0 01-1.03.98l-5.13-.17a1 1 0 00-1.03 1v23.54a1 1 0 01-1 1h-4.68a1 1 0 01-1-.98q-.21-11-.08-14.02.27-5.92.02-9.59a1.01 1-3.5 00-1.06-.93zM573.65 362.44q-.02 2.7 1.75.66 4.09-4.72 8.29-9.18 2.22-2.36 4.37-2.83 1.78-.39 3.63-.17 1.97.24.61 1.68l-10.14 10.77a.99.99 0 00-.07 1.28L593.65 380q1 1.32-.65 1.28l-5.43-.14a.99.98 72.4 01-.78-.41L578 368.7a1.01 1-38.5 00-1.47-.16l-2.44 2.16a.99.97 69 00-.33.76l.15 8.67a1 1 0 01-.97 1.02l-4.42.13a1 .99-.6 01-1.03-1l.04-40.6a1 1 0 011.02-1l4.27.09a1.01 1-89.4 01.98 1.01l-.15 22.66zM329.05 355.09q3.71-5.16 10.31-4.58a1 1 0 01.91 1.06l-.25 3.85a1.01.99 4.4 01-1.1.93c-6.94-.72-10.47 3.43-10.43 9.97q.04 6.97-.01 13.94a1 1 0 01-1 .99h-4.23a1 1 0 01-1-1v-28.27a1 1 0 011.04-1l2.92.11a1.01 1.01 0 01.95.85l.45 2.81q.3 1.91 1.44.34zM363.55 361.56q.23-2.9-1.52-4.7-1.54-1.59-4.45-1.49-3.76.13-7.2 1.79a1 1 0 01-1.36-.52l-1.13-2.74a1.01 1 67.2 01.52-1.29q4.92-2.22 10.82-2.09 10.44.23 10.48 10.47.05 9.65.03 19.28a1 1 0 01-1.04 1l-2.75-.12a.99.99 0 01-.91-.71l-.55-1.86a1 1 0 00-1.66-.43q-4.56 4.47-11.57 3.22c-4.11-.73-6.31-3.33-6.79-7.47q-.94-8.04 7.78-10.41 2.34-.64 10.35-1.02a1 .99 1 00.95-.91zm-11.4 7.75c-6.05 6.52 9.03 13.08 11.49-.29q.45-2.49-2.08-2.38c-2.96.14-7.28.37-9.41 2.67zM385.09 353.83q2.59-3.03 7.18-3.3 5.96-.36 9.55 3.65a1 .99-43.7 001.46.03q5.66-5.78 13.4-3.09c4.7 1.64 5.53 5.9 5.54 10.78q.03 9.16.3 18.34a1.01 1-.5 01-1.02 1.03l-4.5-.07a1 1 0 01-.98-1c0-4.82 1.13-18.21-.8-21.99-2.12-4.15-8.69-3.02-10.63.42-2.45 4.34-1.42 16.42-1.33 21.6a1 1 0 01-1 1.02h-4.45a1.01 1 89.4 01-1-.99q-.13-9.78-.03-19.52c.08-7.6-11.61-6.91-12.42 2.19q-.25 2.74-.11 17.31a1.01 1-90 01-1 1.01h-4.26a1 .99 89.7 01-1-1l.01-28.29a1 .99 1.6 011.06-.99l3.25.18a1 .99-87.4 01.94 1.04q-.02.62.11 1.21.43 1.96 1.73.43zM436.3 368.53q.12 4.48 3.26 6.69 2.67 1.89 7.22 1.53 3.51-.28 6.87-1.58a1 1 0 011.36.96l-.07 2.91a1.02 1-9.7 01-.66.91c-6.39 2.37-15.76 2.89-20.77-2.48-5.67-6.07-5.2-19.39 1.65-24.5 7.22-5.38 17.9-2.41 20.64 6.51q.61 1.99.56 7.03a1 1 0 01-1 .99H437.3a1.01 1 89.4 00-1 1.03zm12.64-5.7a1.01 1 86.9 001-1.12q-.37-3.15-2.3-4.84-1.98-1.75-5.15-1.35-4.94.61-5.95 6.02a1 1 0 00.98 1.18l11.42.11zM535.674 368.647A12.74 12.74 0 01523 381.454l-2.34.012a12.74 12.74 0 01-12.807-12.673l-.028-5.4a12.74 12.74 0 0112.673-12.807l2.34-.012a12.74 12.74 0 0112.807 12.673l.028 5.4zm-6.564-5.987a6.83 6.83 0 00-6.83-6.83h-1.06a6.83 6.83 0 00-6.83 6.83v6.88a6.83 6.83 0 006.83 6.83h1.06a6.83 6.83 0 006.83-6.83v-6.88zM550.08 355.08q3.71-5.15 10.29-4.57a.99.99 0 01.91 1.05l-.2 3.83a1 1 0 01-1.1.94c-13.95-1.39-10.41 16.01-10.54 23.94a1 1 0 01-1 .98h-4.19a1 1 0 01-1-1v-28.27a1 1 0 011.04-1l2.97.12a1 1 0 01.95.84l.43 2.79q.3 1.93 1.44.35zM481.8 357.26q-2.64 11.8-6.32 23.32a.99.99 0 01-.97.7l-5.37-.11a1.01 1-7.1 01-.94-.73l-7.91-28.17a1 1 0 01.96-1.27h4.43a1 1 0 01.97.76l4.85 19.54q.74 2.97 1.55.02l5.37-19.56a1.01 1.01 0 01.96-.74l5.68-.03a1 .99 82.1 01.97.74l5.33 19.78q.88 3.25 1.56-.05 2.06-9.98 4.97-19.75a1.01 1-81.4 01.96-.71h4.22a1 1 0 01.96 1.27l-7.94 28.2a1 1 0 01-.95.73l-5.56.07a1 1 0 01-.97-.72c-.63-2.15-6.37-23.56-6.61-23.54a.31.19-82.4 00-.2.25z"
     id="path482" />
  <path
     fill="#fff"
     d="M448.94 362.83l-11.42-.11a1 1 0 01-.98-1.18q1.01-5.41 5.95-6.02 3.17-.4 5.15 1.35 1.93 1.69 2.3 4.84a1.01 1 86.9 01-1 1.12z"
     id="path484" />
  <rect
     width="14.72"
     height="20.54"
     x="514.39"
     y="355.83"
     fill="#fff"
     rx="6.83"
     id="rect486" />
  <path
     fill="#fff"
     d="M363.64 369.02c-2.46 13.37-17.54 6.81-11.49.29 2.13-2.3 6.45-2.53 9.41-2.67q2.53-.11 2.08 2.38z"
     id="path488" />
</svg>
